<mxfile host="app.diagrams.net" modified="2021-04-17T13:37:46.133Z" agent="5.0 (Windows NT 10.0; Win64; x64) AppleWebKit/537.36 (KHTML, like Gecko) Chrome/89.0.4389.128 Safari/537.36" etag="vsmz02bncCd8KuMhVgYd" version="14.6.0" type="github">
  <diagram id="OXTVUF7HlhCObVoxJSgy" name="Page-1">
    <mxGraphModel dx="1056" dy="601" grid="1" gridSize="10" guides="1" tooltips="1" connect="1" arrows="1" fold="1" page="1" pageScale="1" pageWidth="850" pageHeight="1100" math="0" shadow="0">
      <root>
        <mxCell id="0" />
        <mxCell id="1" parent="0" />
        <mxCell id="FySZx3URaAbEBxZgUa9X-1" value="&lt;font style=&quot;font-size: 17px&quot;&gt;Q = 0&lt;br&gt;B = 37&lt;br&gt;B&lt;sub&gt;1&lt;/sub&gt; = 50&lt;br&gt;B&lt;sub&gt;2&lt;/sub&gt; = 25&lt;br&gt;B&lt;sub&gt;3&lt;/sub&gt; = 20&lt;/font&gt;" style="rounded=1;whiteSpace=wrap;html=1;fontStyle=1" vertex="1" parent="1">
          <mxGeometry x="390" y="20" width="120" height="130" as="geometry" />
        </mxCell>
        <mxCell id="FySZx3URaAbEBxZgUa9X-3" value="&lt;font style=&quot;font-size: 17px&quot;&gt;Q = 0&lt;br&gt;B = 37&lt;br&gt;B&lt;sub&gt;1&lt;/sub&gt; = 50&lt;br&gt;B&lt;sub&gt;2&lt;/sub&gt; = 25&lt;br&gt;B&lt;sub&gt;3&lt;/sub&gt; = 20&lt;/font&gt;" style="rounded=1;whiteSpace=wrap;html=1;fontStyle=1" vertex="1" parent="1">
          <mxGeometry x="240" y="200" width="120" height="130" as="geometry" />
        </mxCell>
        <mxCell id="FySZx3URaAbEBxZgUa9X-4" value="&lt;font style=&quot;font-size: 17px&quot;&gt;Q = 0&lt;br&gt;B = 37&lt;br&gt;B&lt;sub&gt;1&lt;/sub&gt; = 50&lt;br&gt;B&lt;sub&gt;2&lt;/sub&gt; = 25&lt;br&gt;B&lt;sub&gt;3&lt;/sub&gt; = 20&lt;/font&gt;" style="rounded=1;whiteSpace=wrap;html=1;fontStyle=1" vertex="1" parent="1">
          <mxGeometry x="560" y="200" width="120" height="130" as="geometry" />
        </mxCell>
      </root>
    </mxGraphModel>
  </diagram>
</mxfile>
